# xmcd
#
# Track frame offsets: 
#        150
#        14566
#        29923
#        45193
#        57998
#        72095
#
# Disc length: 1144 seconds
#
# Revision: 0
# Processed by: cddbd v1.5.2PL0 Copyright (c) Steve Scherf et al.
# Submitted via: ExactAudioCopyFreeDBPlugin 1.0
#
DISCID=4d047606
DTITLE=Abby Anderson - I'm Good
DYEAR=2019
DGENRE=Country
TTITLE0=Good Lord
TTITLE1=I'm Good
TTITLE2=Make Him Wait
TTITLE3=This Feeling
TTITLE4=Dancy Away My Broken Heart
TTITLE5=Naked Truth
EXTD=
EXTT0=
EXTT1=
EXTT2=
EXTT3=
EXTT4=
EXTT5=
PLAYORDER=
